<?xml version="1.0" encoding="UTF-8"?>
<!DOCTYPE svg PUBLIC "-//W3C//DTD SVG 1.1//EN" "http://www.w3.org/Graphics/SVG/1.1/DTD/svg11.dtd">
<!-- Creator: CorelDRAW X8 -->
<svg xmlns="http://www.w3.org/2000/svg" xml:space="preserve" width="48px" height="48px" version="1.1" style="shape-rendering:geometricPrecision; text-rendering:geometricPrecision; image-rendering:optimizeQuality; fill-rule:evenodd; clip-rule:evenodd"
viewBox="0 0 48 48"
 xmlns:xlink="http://www.w3.org/1999/xlink">
 <defs>
  <style type="text/css">
   <![CDATA[
    .fil0 {fill:#3F51B5}
    .fil1 {fill:#FEFEFE}
   ]]>
  </style>
 </defs>
 <g id="Слой_x0020_1">
  <metadata id="CorelCorpID_0Corel-Layer"/>
  <g id="_623558304">
   <path class="fil0" d="M6 10l0 28c0,2 2,4 4,4l28 0c2,0 4,-2 4,-4l0 -28c0,-3 -2,-4 -4,-4l-28 0c-2,0 -4,1 -4,4z"/>
   <path class="fil1" d="M23 21l0 4 3 0 0 13 5 0 0 -13c2,0 4,0 3,-3 -1,-3 1,1 -1,-1 -2,-2 -1,1 -2,-2 3,-6 4,3 4,-6 -3,0 -6,-1 -8,2 -3,5 2,5 -4,6z"/>
  </g>
 </g>
</svg>
