<svg width="320" height="288" viewBox="0 0 320 288" xmlns="http://www.w3.org/2000/svg" xmlns:xlink="http://www.w3.org/1999/xlink"><svg width="48" height="48" viewBox="0 0 48 48" shape-rendering="geometricPrecision" text-rendering="geometricPrecision" image-rendering="optimizeQuality" fill-rule="evenodd" clip-rule="evenodd" id="conficon" x="248" y="100" xmlns="http://www.w3.org/2000/svg"><defs><style>.afil2{fill:#424242}.afil3{fill:#455a64}.afil0{fill:#5f7c8b}.afil4{fill:#ff9800}.afil1{fill:#ffb64b}</style></defs><g id="aСлой_x0020_1"><g id="a_850251776"><path class="afil0" d="M12 32v7h24v-7c-6-2-2-3-8-4-2 5-6 5-8 0-6 1-3 3-8 4z"/><path class="afil1" d="M16 19c1 3 2 5 4 7 3 1 5 1 8 0 2-2 3-4 4-7-3-1 0 1-4-6-2 0-5 1-7 2-4 2-2 0-3 4h-2z"/><path class="afil2" d="M16 19h2c1-4-1-2 3-4 2-1 5-2 7-2 4 7 1 5 4 6 0-4 0-6-1-8-1-1-4-3-7-3-6 0-8 4-8 11z"/><path class="afil1" d="M33 27c1 4 0 2 3 4h4c2-1 3-1 3-5l-2-4c-2 0-4 1-5 2-4 1-1 0-3 3zM5 27c1 4 0 2 3 4h4c2-1 3-1 3-5l-1-2c-1-1-1-1-1-2-8 1-7 3-8 5z"/><path class="afil3" d="M12 39v-6l-3 1-1-2c-5 1-6 2-6 7H0h12zm24-6v6h10c0-5-1-6-6-7l-1 2-3-1z"/><path class="afil4" d="M20 28c2 5 6 5 8 0v-2c-3 1-5 1-8 0v2z"/><path class="afil2" d="M5 27c1-2 0-4 8-5 0 1 0 1 1 2l1 2v-5c-5-2-4-2-9-1-1 2-1 3-1 7zm28 0c2-3-1-2 3-3 1-1 3-2 5-2l2 4v-5c-5-2-4-2-9-1-1 2-1 3-1 7z"/><path class="afil4" d="M36 33l3 1 1-2v-1h-4v1zm-24 0v-2H8v1l1 2z"/></g></g></svg><svg width="48" height="48" viewBox="0 0 48 48" shape-rendering="geometricPrecision" text-rendering="geometricPrecision" image-rendering="optimizeQuality" fill-rule="evenodd" clip-rule="evenodd" id="cubesicon" x="148" y="160" xmlns="http://www.w3.org/2000/svg"><defs><style>.bfil1{fill:#00acc1}.bfil2{fill:#00bad3}.bfil0{fill:#4cd0e0}.bfil3{fill:#cdd7dc}</style></defs><g id="bСлой_x0020_1"><g id="b_850253632"><path class="bfil0" d="M12 30v9l3-1 3-2c2-2 1-5 1-9l-7 3z"/><path class="bfil1" d="M30 36l3 2c1 0 1 0 3 1v-9c-3-1-5-2-7-3v7c0 1 0 1 1 2z"/><path class="bfil0" d="M36 30v9c4-1 3-2 7-3v-9l-7 3z"/><path class="bfil1" d="M12 39v-9c-3-1-5-2-7-3v9c4 1 2 2 7 3zm5-27v7c4 1 2 2 7 3v-9c-3-1-5-2-7-3v2z"/><path class="bfil0" d="M24 13v9c4-1 3-2 7-3v-9l-7 3z"/><path class="bfil2" d="M17 10c2 1 4 2 7 3l7-3-1-1c-2-1-1-1-2-1-1-1-3-2-4-2-3 2-5 1-7 4zm12 17c2 1 4 2 7 3l7-3s0-1-1-1c0 1 0 0 0 0-2-1-1-1-2-1l-2-1-2-1c-1 0-2 1-3 1l-4 3zm-19-3l-2 1c-5 2 3-3-1 0l-2 2c2 1 4 2 7 3l7-3c-2-3-4-3-7-4l-2 1z"/><path class="bfil3" d="M18 36l-3 2c7 6 11 4 18 0l-3-2c-2 1-4 2-6 4-2-2-3-3-6-4zM8 25l2-1 3-7 4-2v-3l-4 2c-3 2-3 2-5 4v7zm23-10l4 2 2 2c1 1 1 4 1 5l2 1v-7c-4-3 0-1-7-5-1 0-1-1-2-1v3z"/></g></g></svg><svg width="48" height="48" viewBox="0 0 48 48" shape-rendering="geometricPrecision" text-rendering="geometricPrecision" image-rendering="optimizeQuality" fill-rule="evenodd" clip-rule="evenodd" id="dollaricon" x="196" y="160" xmlns="http://www.w3.org/2000/svg"><defs><style>.cfil0{fill:#00bcd4}.cfil3{fill:#3f51b5}.cfil1{fill:#448aff}.cfil2{fill:#fbfdfd}</style></defs><g id="cСлой_x0020_1"><g id="c_848950528"><path class="cfil0" d="M38 38l-7-7c-3 3-3 1-6 4 0 0 0 3-1 1v1c-6-7-6-3-7-10 8 1 0 2 7 4 4 0 0 0 2-1 2-6-6-3-8-8-2-6 2-6 4-9l2-2V4C6 4 0 23 5 33c7 14 28 14 33 5z"/><path class="cfil1" d="M24 11l4 4c2 2 2 1 3 5-9 0-1-1-8-3v5l6 2h15c0-12-8-20-20-20v7z"/><path class="cfil2" d="M31 31c0-4-1-5-2-7l-6-2-1-3 1-2c7 2-1 3 8 3-1-4-1-3-3-5l-4-4-2 2c-2 3-6 3-4 9 2 5 10 2 8 8-2 1 2 1-2 1-7-2 1-3-7-4 1 7 1 3 7 10v-1c1 2 1-1 1-1 3-3 3-1 6-4z"/><path class="cfil3" d="M31 31l7 7 2-2c1-1 2-2 2-3 2-3 2-5 2-9H29c1 2 2 3 2 7z"/><path class="cfil0" d="M23 22v-5l-1 2z"/></g></g></svg><svg width="48" height="48" viewBox="0 0 48 48" shape-rendering="geometricPrecision" text-rendering="geometricPrecision" image-rendering="optimizeQuality" fill-rule="evenodd" clip-rule="evenodd" id="facebookicon" x="244" y="160" xmlns="http://www.w3.org/2000/svg"><defs><style>.dfil0{fill:#3f51b5}.dfil1{fill:#fefefe}</style></defs><g id="dСлой_x0020_1"><g id="d_623558304"><path class="dfil0" d="M6 10v28c0 2 2 4 4 4h28c2 0 4-2 4-4V10c0-3-2-4-4-4H10c-2 0-4 1-4 4z"/><path class="dfil1" d="M23 21v4h3v13h5V25c2 0 4 0 3-3s1 1-1-1-1 1-2-2c3-6 4 3 4-6-3 0-6-1-8 2-3 5 2 5-4 6z"/></g></g></svg><svg width="30" height="30" viewBox="0 0 30 30" shape-rendering="geometricPrecision" text-rendering="geometricPrecision" image-rendering="optimizeQuality" fill-rule="evenodd" clip-rule="evenodd" id="greenicon" x="168" y="60" xmlns="http://www.w3.org/2000/svg"><defs><style>.efil0{fill:#8bc34a}.efil1{fill:#cbfe8f}</style></defs><g id="eСлой_x0020_1"><g id="e_839113600"><path class="efil0" d="M9 4C7 9 9 6 5 9c0 4 0 3-2 6 2 3 2 2 2 7 4 2 2 0 4 4 4 0 4 0 7 2 2-2 2-2 6-2 2-4 0-2 5-4 0-5 0-4 2-7-2-3-2-2-2-6-5-3-3 0-5-5-4 0-3 0-6-2-3 2-2 2-7 2z"/><path class="efil1" d="M14 17c-2-1-2-3-5-2 0 3 3 5 5 6l8-8c3-2 1-5-2-2l-6 6z"/></g></g></svg><svg width="120" height="100" viewBox="0 0 120 100" shape-rendering="geometricPrecision" text-rendering="geometricPrecision" image-rendering="optimizeQuality" fill-rule="evenodd" clip-rule="evenodd" id="indevlogolight" y="60" xmlns="http://www.w3.org/2000/svg"><defs><style>.fstr0{stroke:#42362b;stroke-width:.999213}.fstr1,.fstr2{stroke:#262012;stroke-width:1.99961}.fstr2{stroke:#e3e0cf}.ffil3{fill:none;fill-rule:nonzero}.ffil1{fill:#262012}.ffil0{fill:#e3e0cf}.ffil2,.ffil4{fill:#262012;fill-rule:nonzero}.ffil4{fill:#e3e0cf}</style></defs><g id="fСлой_x0020_1"><g id="f_925646848"><path class="ffil0" d="M3 45v47c0-1 1-1 2-2l6-3V50c-2-1-4-3-6-4-1 0-2-1-2-1zm0 0v47-47z"/><path class="ffil0 fstr0" d="M55 21l8 4 7 5v16l-7 4-8 4-7-4-7-4V30l7-5z"/><path class="ffil1" d="M6 31l-3 1v7l8 5V34c-2-1-3-2-5-3zm-3 1v7-7zm0 7v-7 7zm0-7v7-7z"/><path class="ffil2" d="M34 53c3 2 6 4 9 5 3 2 7 4 10 6v21l-6-3V67l-1-1c-1 0-2-1-2-1-2-1-3-2-5-3-1-1-3-2-5-3-2 2-4 3-6 4s-4 3-7 4v15h-1l-2 2c-1 0-1 0-2 1V53c1 1 2 1 3 2 1 0 1 1 2 1v5c3-2 5-3 7-4s4-3 6-4z"/><path id="f1" class="ffil3 fstr1" d="M34 53c3 2 6 4 9 5 3 2 7 4 10 6v21l-6-3V67l-1-1c-1 0-2-1-2-1-2-1-3-2-5-3-1-1-3-2-5-3-2 2-4 3-6 4s-4 3-7 4v15h-1l-2 2c-1 0-1 0-2 1V53c1 1 2 1 3 2 1 0 1 1 2 1v5c3-2 5-3 7-4s4-3 6-4z"/><path class="ffil2" d="M94 64c-3 1-6 3-9 5s-6 3-9 5c-1 0-2-1-2-1-1-1-2-1-3-2 2-1 4-2 6-4 2-1 5-2 7-3-2-1-3-2-4-3-1 0-3-1-4-2-2 2-4 3-6 4s-5 3-7 4v15c2 1 5 2 7 3 2 2 4 3 6 4 2-1 4-2 7-4l6-3 5 3c-3 2-6 3-9 5s-6 4-9 5c-3-1-6-3-9-5s-6-3-9-5V64c2-2 5-3 8-5 2-1 5-3 8-4 0-1 0-1 1-1l1-1h1c0 1 0 1 1 1 2 2 5 3 8 5 3 1 6 3 8 5z"/><path id="f1" class="ffil3 fstr1" d="M94 64c-3 1-6 3-9 5s-6 3-9 5c-1 0-2-1-2-1-1-1-2-1-3-2 2-1 4-2 6-4 2-1 5-2 7-3-2-1-3-2-4-3-1 0-3-1-4-2-2 2-4 3-6 4s-5 3-7 4v15c2 1 5 2 7 3 2 2 4 3 6 4 2-1 4-2 7-4l6-3 5 3c-3 2-6 3-9 5s-6 4-9 5c-3-1-6-3-9-5s-6-3-9-5V64c2-2 5-3 8-5 2-1 5-3 8-4 0-1 0-1 1-1l1-1h1c0 1 0 1 1 1 2 2 5 3 8 5 3 1 6 3 8 5z"/><path class="ffil2" d="M68 9l6-3v42l-9 6c-3 1-7 3-10 5-2-1-4-3-6-4-3-1-5-3-7-4-1 0-2-1-3-1 0-1-1-1-2-2V27l5-2c2-2 4-3 7-4 2-2 4-3 7-4l6 3c2 2 4 3 6 4V9zM55 23c-2 1-4 2-6 4l-6 3v15c2 1 4 3 6 4s4 3 7 4c2-2 4-3 6-4s4-3 6-4V30l-6-3c-2-2-4-3-7-4z"/><path id="f1" class="ffil3 fstr1" d="M68 9l6-3v42l-9 6c-3 1-7 3-10 5-2-1-4-3-6-4-3-1-5-3-7-4-1 0-2-1-3-1 0-1-1-1-2-2V27l5-2c2-2 4-3 7-4 2-2 4-3 7-4l6 3c2 2 4 3 6 4V9zM55 23c-2 1-4 2-6 4l-6 3v15c2 1 4 3 6 4s4 3 7 4c2-2 4-3 6-4s4-3 6-4V30l-6-3c-2-2-4-3-7-4z"/><path class="ffil4" d="M116 27v21c0 1-1 1-2 2-1 0-1 1-2 1-2 1-5 3-7 4s-5 3-7 4c-3-2-6-3-9-5s-6-4-9-5V27h1l2-2c1 0 2 0 2-1 1 1 2 1 3 2 1 0 2 1 3 1-1 1-2 1-3 2s-2 1-3 2v15h2c2 1 4 3 5 4l6 3c2-1 4-3 7-4 2-1 4-2 6-4V31c-1-1-2-2-3-2l-2-2s1-1 2-1c1-1 2-1 3-2l5 3z"/><path id="f1" class="ffil3 fstr2" d="M116 27v21c0 1-1 1-2 2-1 0-1 1-2 1-2 1-5 3-7 4s-5 3-7 4c-3-2-6-3-9-5s-6-4-9-5V27h1l2-2c1 0 2 0 2-1 1 1 2 1 3 2 1 0 2 1 3 1-1 1-2 1-3 2s-2 1-3 2v15h2c2 1 4 3 5 4l6 3c2-1 4-3 7-4 2-1 4-2 6-4V31c-1-1-2-2-3-2l-2-2s1-1 2-1c1-1 2-1 3-2l5 3z"/></g></g></svg><svg width="48" height="48" viewBox="0 0 48 48" shape-rendering="geometricPrecision" text-rendering="geometricPrecision" image-rendering="optimizeQuality" fill-rule="evenodd" clip-rule="evenodd" id="instagramicon" x="120" y="60" xmlns="http://www.w3.org/2000/svg"><defs><style>.gfil1{fill:#3f37f7}.gfil4{fill:#8a29a9}.gfil2{fill:#dc165d}.gfil8{fill:#fe1446}.gfil6{fill:#fe6b0e}.gfil5{fill:#ff8401}.gfil3{fill:#ffdb6c}.gfil7{fill:#ffebb1}.gfil0{fill:#fffcfa}</style></defs><g id="gСлой_x0020_1"><g id="g_848929088"><path class="gfil0" d="M10 17v10c0 4 0 6 2 8 3 3 1 1 4 3h14c4 0 6-1 8-6V21c0-9-3-11-12-11-8 0-14 0-16 7z"/><path class="gfil1" d="M6 19c2-2 1-1 4-2 2-7 8-7 16-7 9 0 12 2 12 11l2 2 2 2c0-6 1-12-2-15-3-4-6-4-13-4C13 6 6 4 6 19z"/><path class="gfil2" d="M13 16l-1 9 5-2c1-3 3-6 8-6 5 1 6 4 6 9 3 2 2 2 5 5V19c-9-4-10-6-23-3z"/><path class="gfil0" d="M17 23l2 6 7 2c4-2 3-1 5-5 0-5-1-8-6-9-5 0-7 3-8 6z"/><path class="gfil3" d="M13 33c1 3 2 3 6 3h10l-3-5-7-2c-2 2-3 3-6 4z"/><path class="gfil2" d="M38 32v8c2-1 1 0 2-1s2-2 2-3V25l-2-2-2-2v11z"/><path class="gfil4" d="M13 16c13-3 14-1 23 3-1-5-3-7-9-7-7 0-10-1-14 4z"/><path class="gfil5" d="M26 31l3 5c5-1 6-1 7-5-3-3-2-3-5-5-2 4-1 3-5 5zM6 31c0 6 1 9 6 10v-6c-2-2-2-4-2-8l-2 2-2 2z"/><path class="gfil6" d="M28 22h-8c-3 9 10 10 8 0z"/><path class="gfil2" d="M6 19v12l2-2 2-2V17c-3 1-2 0-4 2z"/><path class="gfil5" d="M12 25l1 8c3-1 4-2 6-4l-2-6-5 2z"/><path class="gfil7" d="M16 42h10v-4H16z"/><path class="gfil6" d="M30 38v4l8-2v-8c-2 5-4 6-8 6z"/><path class="gfil8" d="M20 22h8c-1-2-1-3-4-3-4 0-3 2-4 3z"/><path class="gfil3" d="M12 41c1 1 0 1 2 1h2v-4c-3-2-1 0-4-3v6zm14 1h4v-4h-4z"/></g></g></svg><svg width="48" height="48" viewBox="0 0 48 48" shape-rendering="geometricPrecision" text-rendering="geometricPrecision" image-rendering="optimizeQuality" fill-rule="evenodd" clip-rule="evenodd" id="keyicon" x="120" y="108" xmlns="http://www.w3.org/2000/svg"><defs><style>.hfil1{fill:#546e79}.hfil0{fill:#ffe47d}</style></defs><g id="hСлой_x0020_1"><g id="h_850244128"><path class="hfil0" d="M6 35c11-10 5-2 7-16 1-6 8-9 16-8-2 3-5 5-8 8 1 5 3 6 7 8 5-2 6-5 10-8 1 23-14 13-19 17-3 2-3 3-6 6 2 1 0 0 3 2 3 1 9 2 13 1 24-5 20-40-3-42-6 0-12 2-15 4-3 3-6 7-8 12-1 6 0 10 3 16z"/><path class="hfil1" d="M6 35c1 2 1 3 3 5 0 0 1 0 1 1 2 1 2 0 3 1 3-3 3-4 6-6 5-4 20 6 19-17-4 3-5 6-10 8-4-2-6-3-7-8 3-3 6-5 8-8-8-1-15 2-16 8-2 14 4 6-7 16z"/></g></g></svg><svg width="48" height="48" viewBox="0 0 48 48" shape-rendering="geometricPrecision" text-rendering="geometricPrecision" image-rendering="optimizeQuality" fill-rule="evenodd" clip-rule="evenodd" id="linkendinicon" x="100" y="160" xmlns="http://www.w3.org/2000/svg"><defs><style>.ifil0{fill:#0288d1}.ifil1{fill:#fff}</style></defs><g id="iСлой_x0020_1"><g id="i_848959232"><path class="ifil0" d="M6 10v28c0 2 1 4 4 4h28c2 0 4-2 4-4V10c0-2-2-4-4-4H10c-3 0-4 2-4 4z"/><path class="ifil1" d="M20 36h5V24h5l1 12h5c0-7 1-16-6-17-6-1 1 2-7 0h-3v17zm-8 0h5V19h-5zm2-19c3-1 3-2 2-5-5 1-5 2-2 5z"/></g></g></svg><svg width="200" height="60" viewBox="0 0 200 60" shape-rendering="geometricPrecision" text-rendering="geometricPrecision" image-rendering="optimizeQuality" fill-rule="evenodd" clip-rule="evenodd" id="logoiconnonsquare" xmlns="http://www.w3.org/2000/svg"><defs><style>.jfil0{fill:#404945}.jfil1{fill:#e1a922}.jfil2{fill:#e6af4b}</style></defs><g id="jСлой_x0020_1"><g id="j_812399808"><path class="jfil0" d="M32 46h8V30c3 2 10 16 13 16h9V18h-8v17l-9-13c-4-5-2-4-13-4v28zm44-7V25c8 0 13-2 13 7s-4 7-13 7zm-8 7h20c3 0 5-1 7-3 4-4 4-18 0-22-1-2-4-3-7-3H68v28zm93 3h11l7-16c3-5 5-10 8-15h-11c-2 3-8 19-10 20l-9-20h-11l11 23c2 3 3 5 4 8z"/><path class="jfil1" d="M116 13v10l19-2c7 0 6 3 6-12 0-2 0-2-1-3l-12 3c-3 0-4 1-7 1-2 1-5 1-5 3zm0 37c0 2 7 3 11 4s11 2 14 2c0-4 0-10-1-14-6 0-17-2-24-2v10zm0-24v11c8 0 15 1 25 1 0-5 0-9-1-13-8 0-16 1-24 1z"/><path class="jfil2" d="M76 39c9 0 13 2 13-7s-5-7-13-7v14z"/><path class="jfil0" d="M18 46h9V28h-9z"/><path class="jfil1" d="M104 16v8c12 0 10 0 10-12-3 0-10 1-10 4zm0 30c0 4 5 5 10 5 0-12 1-12-5-12-2 0-4-1-5-1v8zm0-17c0 6-2 7 8 7 2 0 2 1 2-8 0-3-4-2-5-2-3 1-5 0-5 3z"/><path class="jfil0" d="M18 25h8v-5h-8z"/></g></g></svg><svg width="120" height="100" viewBox="0 0 120 100" shape-rendering="geometricPrecision" text-rendering="geometricPrecision" image-rendering="optimizeQuality" fill-rule="evenodd" clip-rule="evenodd" id="logosquarestandart" x="200" xmlns="http://www.w3.org/2000/svg"><defs><style>.kstr0{stroke:#2b2a29;stroke-width:1.0689}.kfil3{fill:#2b2a29}.kfil1{fill:#b5b0ad}.kfil0,.kfil2{fill:#2b2a29;fill-rule:nonzero}.kfil2{fill:#b5b0ad}</style></defs><g id="kСлой_x0020_1"><g id="k_816818048"><path class="kfil0" d="M96 63c-3 2-6 4-10 6-3 2-6 4-10 6-1-1-2-1-3-2s-2-1-3-1c3-2 5-3 7-5 3-1 5-2 7-4-1-1-3-2-4-2-1-1-3-2-4-2-2 1-5 2-7 4-2 1-5 3-7 4v16c2 2 5 3 7 5 2 1 5 2 7 4 3-2 5-3 7-4 3-2 5-3 7-5l6 4c-3 2-6 4-10 6-3 2-6 3-10 6-3-3-6-4-10-6-3-2-7-4-10-6V63c2-1 6-3 8-5 4-2 6-3 9-5 1 0 1 0 2-1h3l9 6c3 2 6 3 9 5z"/><path class="kfil1 kstr0" d="M53 16l9 5 9 6v20l-9 5-9 5-9-5-9-5V27l9-6z"/><path class="kfil0" d="M68 5l6-3v47c-3 1-6 3-10 6-3 1-7 3-10 5-3-1-5-3-8-4-2-2-5-3-7-5-1 0-2-1-3-1-1-1-1-1-2-1V25l5-3c2-1 5-3 7-4 3-2 6-3 8-5 2 2 4 3 7 4 3 2 5 3 7 4V5zM54 20c-2 1-5 3-7 4-3 2-5 3-7 4v17c2 1 4 3 7 4 2 1 5 3 7 4 2-1 5-3 7-4 3-1 5-3 7-4V28c-2-1-4-2-7-4-2-1-5-3-7-4z"/><path class="kfil2" d="M119 25v24s-1 0-2 1c-1 0-2 1-3 1-2 2-5 4-7 5-3 1-5 3-8 4-3-2-7-4-10-5-3-2-7-5-10-6V25c1 0 1-1 1-1 1 0 1-1 2-1 1-1 2-1 3-2 1 1 2 2 3 2 1 1 2 2 3 2-1 1-3 1-4 2l-2 2v15c-1 0 0 1 0 1l1 1h1c1 1 4 3 5 4 3 1 5 2 7 4 2-2 5-4 7-5 3-1 5-3 7-4V29c-1-1-2-2-3-2-1-1-2-1-3-2 1 0 2-1 3-2 1 0 2-1 3-2l6 4z"/><path class="kfil1" d="M2 46v46l6-3V50c-2-1-4-3-6-4z"/><path class="kfil3" d="M2 42l6 4v-8c-2-2-4-3-6-4v8z"/><path class="kfil0" d="M32 51c3 3 7 4 10 6 4 2 7 4 10 6v24l-6-4V67c0-1-1-1-2-1 0 0-1-1-2-1-1-1-3-2-5-4-2 0-3-1-5-2-2 1-5 2-8 3-2 2-4 4-6 5v16h-1c0 1-1 1-1 1-1 0-2 1-2 1-1 1-2 1-2 2V52c1 0 1 1 2 1 1 1 3 2 4 2v5c2-1 4-3 7-4 2-2 5-3 7-5z"/></g></g></svg><svg width="100" height="80" viewBox="0 0 100 80" shape-rendering="geometricPrecision" text-rendering="geometricPrecision" image-rendering="optimizeQuality" fill-rule="evenodd" clip-rule="evenodd" id="logotipp" y="160" xmlns="http://www.w3.org/2000/svg"><defs><style>.lfil1{fill:#333}.lfil0{fill:#666f76}.lfil2{fill:#dcded3}</style></defs><g id="lСлой_x0020_1"><g id="l_832033776"><g id="l_1061871952"><path class="lfil0" d="M24 37c1 0 3 2 4 2v20c-1 0-3 1-4 1V37zm10 7c5-2 4-4 7-2l8 4c1 14 0 10-3 9v-7c-1-1-6-3-6-3-1 0-5 2-6 3v7c-3 1-3 3-3 0V41c1 0 2 1 3 1v2zm18 2c1-1 8-5 9-5s8 4 9 5c0 1 0 1-1 1l-8 4s-2-1-3-1c1-1 5-3 6-4-1 0-2-1-2-1-1-1-2 0-3 0-1 1-3 2-4 3v7c9 4 4 3 12 0 0-1 3 1 3 1-1 1-8 6-9 6s-8-5-9-6V46zm4-26c3-2 4-4 4 1v18c-1 1-9 5-10 5 0 0-8-4-9-5V29c2-2 5-3 8-5 2-1 2-1 4 1 0 0 2 1 3 2v-7zM28 37c-1 0-3-1-4-2v-5c1 0 3 1 4 2v5zm34-8c2-3 5-2 6 0l-2 2v6c0 1 5 4 6 4 0 0 4-3 5-3v-7c0-1-1-1-2-2 0-1 2-2 3-2s2 1 3 2v10c-2 1-9 6-10 5 0 0-8-4-9-5V29zM15 15v51c0 6 5 11 11 11h51c6 0 11-5 11-11V15c0-6-5-11-11-11H26c-6 0-11 5-11 11z"/><path class="lfil1" d="M15 15c0-6 5-11 11-11h51c6 0 11 5 11 11v51c0 6-5 11-11 11H26c-6 0-11-5-11-11V15zm-3-1v53c0 7 6 14 13 14h53c7 0 14-7 14-14V14c0-5-4-10-8-12-2-1-4-1-6-1H25c-7 0-13 6-13 13z"/><path class="lfil1" d="M44 31c1-1 6-4 6-4 1 0 6 3 6 4v6c0 1-5 4-6 4 0 0-5-3-6-4v-6zm12-11v7c-1-1-3-2-3-2-2-2-2-2-4-1-3 2-6 3-8 5v10c1 1 9 5 9 5 1 0 9-4 10-5V21c0-5-1-3-4-1zm-4 26v10c1 1 8 6 9 6s8-5 9-6c0 0-3-2-3-1-8 3-3 4-12 0v-7c1-1 3-2 4-3 1 0 2-1 3 0 0 0 1 1 2 1-1 1-5 3-6 4 1 0 3 1 3 1l8-4c1 0 1 0 1-1-1-1-8-5-9-5s-8 4-9 5z"/><path class="lfil2" d="M62 29v10c1 1 9 5 9 5 1 1 8-4 10-5V29c-1-1-2-2-3-2s-3 1-3 2c1 1 2 1 2 2v7c-1 0-5 3-5 3-1 0-6-3-6-4v-6l2-2c-1-2-4-3-6 0z"/><path class="lfil1" d="M34 44v-2c-1 0-2-1-3-1v14c0 3 0 1 3 0v-7c1-1 5-3 6-3 0 0 5 2 6 3v7c3 1 4 5 3-9l-8-4c-3-2-2 0-7 2z"/><path class="lfil2" d="M44 37c1 1 6 4 6 4 1 0 6-3 6-4v-6c0-1-5-4-6-4 0 0-5 3-6 4v6zM24 60c1 0 3-1 4-1V39c-1 0-3-2-4-2v23z"/><path class="lfil1" d="M28 37v-5c-1-1-3-2-4-2v5c1 1 3 2 4 2z"/></g></g></g></svg><svg width="48" height="48" viewBox="0 0 48 48" shape-rendering="geometricPrecision" text-rendering="geometricPrecision" image-rendering="optimizeQuality" fill-rule="evenodd" clip-rule="evenodd" id="odnoklassnikiicon" y="240" xmlns="http://www.w3.org/2000/svg"><defs><style>.mfil0{fill:#ff9800}.mfil1{fill:#fffffe}</style></defs><g id="mСлой_x0020_1"><g id="m_848344864"><path class="mfil0" d="M6 10v28c0 2 2 4 4 4h28c2 0 4-2 4-4V10c0-2-2-4-4-4H10c-2 0-4 2-4 4z"/><path class="mfil1" d="M21 11s-7 2-3 9c1 3 5 5 9 3 7-3 4-16-6-12zm-4 15c-1 4 1 3 4 5-2 2-5 3-4 7 4 0 4-2 7-4 3 2 3 4 7 4 0-4-2-5-4-7 3-2 5-1 4-5l-11-1h-1c-2 0-2 1-2 1z"/><path class="mfil0" d="M26 14c-5 0-6 4-3 5 4 3 4-3 3-5z"/></g></g></svg><svg width="48" height="48" viewBox="0 0 48 48" shape-rendering="geometricPrecision" text-rendering="geometricPrecision" image-rendering="optimizeQuality" fill-rule="evenodd" clip-rule="evenodd" id="pcclassicon" x="48" y="240" xmlns="http://www.w3.org/2000/svg"><defs><style>.nfil6{fill:#4557b9}.nfil5{fill:#455a63}.nfil2{fill:#546e79}.nfil0{fill:#b9dcfa}.nfil3{fill:#f57c00}.nfil4{fill:#ff9800}.nfil1{fill:#ffc107}</style></defs><g id="nСлой_x0020_1"><g id="n_850256064"><path class="nfil0" d="M23 10c2 1 2 2 4 3v1l-4 2v-6zm-9 9h21V7H15l-1 12z"/><path class="nfil1" d="M10 29h33v-4H7v4z"/><path class="nfil2" d="M15 7h20v12H14l1-12zm7 14h15V5H13v16h9z"/><path class="nfil3" d="M14 33h22v-4H14z"/><path class="nfil4" d="M14 33v-4h-4v14h4zm22 0v10h4V29h-4z"/><path class="nfil5" d="M17 25h16v-2h-5v-2h-6v2h-5z"/><path class="nfil6" d="M23 16l4-2v-1c-2-1-2-2-4-3v6z"/></g></g></svg><svg width="48" height="48" viewBox="0 0 48 48" shape-rendering="geometricPrecision" text-rendering="geometricPrecision" image-rendering="optimizeQuality" fill-rule="evenodd" clip-rule="evenodd" id="priceicon" x="96" y="240" xmlns="http://www.w3.org/2000/svg"><defs><style>.ofil6{fill:#1565c0}.ofil2{fill:#4b4b4b}.ofil7{fill:#4eaf50}.ofil1{fill:#5f5f5f}.ofil3{fill:#90a4ae}.ofil4{fill:#9ccc65}.ofil5{fill:#cddc39}.ofil9{fill:#e0e0e0}.ofil8{fill:#ff5252}.ofil0{fill:#fff}</style></defs><g id="oСлой_x0020_1"><g id="o_96036000"><path class="ofil0" d="M23 28v-7c3-2 6-1 10-1V10c-2-3 1-2-3-2l-1 3H12V8c-5 1-2-1-3 2v29l14 1V28z"/><path class="ofil1" d="M42 28H23v12L9 39V10c1-3-2-1 3-2V5C4 5 6 8 6 21c0 25-4 22 17 22v3h19V28z"/><path class="ofil2" d="M30 8c4 0 1-1 3 2v10c-4 0-7-1-10 1v7h19v-8h-6c0-5 0-11-1-14-3-1-2-1-5-1v3z"/><path class="ofil3" d="M12 5v6h17l1-3V5h-5c-2-6-7-6-8 0h-5z"/><path class="ofil4" d="M25 26h15l-1-4H25z"/><path class="ofil5" d="M20 30h-4v-5l-5 1c-2 11 8 11 9 4z"/><path class="ofil6" d="M12 20l7-1-1-4c-3 1-2-1-2 2h-2c-1-6 0-2-2-3v6z"/><path class="ofil7" d="M20 30c0-4-1-5-4-5v5h4z"/><path class="ofil8" d="M36 33h2v-3c-4 0-2-1-2 3z"/><path class="ofil9" d="M26 32l2 1v-3c-5 1-1 0-2 2zm5 0l2 1v-3c-5 1-1 0-2 2zm-5 5l2 1v-3c-5 1-1 0-2 2zm5 0l2 1v-3c-5 1-1 0-2 2zm5 0l2 1v-3c-5 1-1 0-2 2zm-10 5l2 1v-3c-5 1-1 0-2 2zm5 0l2 1v-3c-5 1-1 0-2 2zm5 0l2 1v-3c-5 1-1 0-2 2z"/></g></g></svg><svg width="48" height="48" viewBox="0 0 48 48" shape-rendering="geometricPrecision" text-rendering="geometricPrecision" image-rendering="optimizeQuality" fill-rule="evenodd" clip-rule="evenodd" id="resticon" x="144" y="240" xmlns="http://www.w3.org/2000/svg"><defs><style>.pfil2{fill:#be360b}.pfil1{fill:#ced8dc}.pfil0{fill:#fe3d00}</style></defs><g id="pСлой_x0020_1"><g id="p_96028544"><path class="pfil0" d="M12 32h20l1-3 1-3c1-3 2-6 2-9l1-3V6H7c0 6 0 8 2 14 1 5 3 8 3 12z"/><path class="pfil1" d="M31 34H4c2 7 9 6 18 6s16 1 18-6h-9z"/><path class="pfil2" d="M36 17c2-1 3-2 6 0l1 2c-1 5-3 7-9 7l-1 3c4 0 7-1 9-3 3-2 3-4 3-9-4-3-2-4-8-3l-1 3zM13 34h18l1-2H12z"/></g></g></svg><svg width="48" height="48" viewBox="0 0 48 48" shape-rendering="geometricPrecision" text-rendering="geometricPrecision" image-rendering="optimizeQuality" fill-rule="evenodd" clip-rule="evenodd" id="simpleoficeicon" x="192" y="240" xmlns="http://www.w3.org/2000/svg"><defs><style>.qfil3{fill:#588d30}.qfil0{fill:#8ac14a}.qfil5{fill:#b3e5fc}.qfil4{fill:#c2380c}.qfil1{fill:#cddb38}.qfil2{fill:#e3580a}</style></defs><g id="qСлой_x0020_1"><g id="q_850270464"><path class="qfil0" d="M6 36l18-7V7c-5 1-13 6-18 6v23z"/><path class="qfil1" d="M24 29l6 1V16l6 3 1 14 5 3V13c-4 0-12-5-18-6v22z"/><path class="qfil2" d="M6 36c2 1 1 0 2 1 13 7 20 7 32 0h1l1-1-5-3c-2 0-6-2-7-3l-6-1-18 7z"/><path class="qfil3" d="M9 19v11c4-1 11-3 12-6V13c-3 1-10 3-12 6z"/><path class="qfil4" d="M30 30c1 1 5 3 7 3l-1-14-6-3v14z"/><path class="qfil5" d="M12 27c4-3 3-7 1-9-2 2-1 0-2 4 0 3 0 3 1 5zm6-2c2-2 2-6 0-9-3 3-2 7 0 9z"/></g></g></svg><svg width="48" height="48" viewBox="0 0 48 48" shape-rendering="geometricPrecision" text-rendering="geometricPrecision" image-rendering="optimizeQuality" fill-rule="evenodd" clip-rule="evenodd" id="twittericon" x="200" y="100" xmlns="http://www.w3.org/2000/svg"><defs><style>.rfil0{fill:#03a9f4}</style></defs><path class="rfil0" d="M9 20l1 7c2 4-1 4 5 5v2c-3 1-5 1-8 2 7 6 25 4 30-11 3-8-1-2 5-11-2-1 0 1-2-1-1-2 0 2 0-1 0-4 2 3 0-1-6 1-16-6-17 8-3-1-5-1-8-3-3-1-5-3-7-5-1 5-1 4 1 9z" id="rСлой_x0020_1"/></svg><svg width="48" height="48" viewBox="0 0 48 48" shape-rendering="geometricPrecision" text-rendering="geometricPrecision" image-rendering="optimizeQuality" fill-rule="evenodd" clip-rule="evenodd" id="vkicon" x="240" y="240" xmlns="http://www.w3.org/2000/svg"><defs><style>.sfil0{fill:#0288d1}.sfil1{fill:#fff}</style></defs><g id="sСлой_x0020_1"><g id="s_850269408"><path class="sfil0" d="M6 10v28c0 2 2 4 4 4h28c2 0 4-2 4-4V10c0-3-2-4-4-4H10c-2 0-4 1-4 4z"/><path class="sfil1" d="M19 24c-2-3-2-4-4-6h-5c2 5 8 16 14 13 5-2-3 2 1-1 2-1-1 0 2-1 3 3 3 3 9 2-1-4-2-2-4-6 2-4 3-3 4-7-9-1-5 1-10 6l-1-3v-4h-6c1 3 1-1 1 3 0 1 0 2-1 4z"/></g></g></svg></svg>