<?xml version="1.0" encoding="UTF-8"?>
<!DOCTYPE svg PUBLIC "-//W3C//DTD SVG 1.1//EN" "http://www.w3.org/Graphics/SVG/1.1/DTD/svg11.dtd">
<!-- Creator: CorelDRAW X8 -->
<svg xmlns="http://www.w3.org/2000/svg" xml:space="preserve" width="48px" height="48px" version="1.1" style="shape-rendering:geometricPrecision; text-rendering:geometricPrecision; image-rendering:optimizeQuality; fill-rule:evenodd; clip-rule:evenodd"
viewBox="0 0 48 48"
 xmlns:xlink="http://www.w3.org/1999/xlink">
 <defs>
  <style type="text/css">
   <![CDATA[
    .fil2 {fill:#424242}
    .fil3 {fill:#455A64}
    .fil0 {fill:#5F7C8B}
    .fil4 {fill:#FF9800}
    .fil1 {fill:#FFB64B}
   ]]>
  </style>
 </defs>
 <g id="Слой_x0020_1">
  <metadata id="CorelCorpID_0Corel-Layer"/>
  <g id="_850251776">
   <path class="fil0" d="M12 32l0 1 0 6 24 0 0 -6 0 -1c-6,-2 -2,-3 -8,-4 -2,5 -6,5 -8,0 -6,1 -3,3 -8,4z"/>
   <path class="fil1" d="M16 19c1,3 2,5 4,7 3,1 5,1 8,0 2,-2 3,-4 4,-7 -3,-1 0,1 -4,-6 -2,0 -5,1 -7,2 -4,2 -2,0 -3,4l-2 0z"/>
   <path class="fil2" d="M16 19l2 0c1,-4 -1,-2 3,-4 2,-1 5,-2 7,-2 4,7 1,5 4,6 0,-4 0,-6 -1,-8 -1,-1 -4,-3 -7,-3 -6,0 -8,4 -8,11z"/>
   <path class="fil1" d="M33 27c1,4 0,2 3,4l4 0c2,-1 3,-1 3,-5l-2 -4c-2,0 -4,1 -5,2 -4,1 -1,0 -3,3z"/>
   <path class="fil1" d="M5 27c1,4 0,2 3,4l4 0c2,-1 3,-1 3,-5l-1 -2c-1,-1 -1,-1 -1,-2 -8,1 -7,3 -8,5z"/>
   <path class="fil3" d="M12 39l0 -6 -3 1 -1 -2c-5,1 -6,2 -6,7l-2 0 12 0z"/>
   <path class="fil3" d="M36 33l0 6 10 0c0,-5 -1,-6 -6,-7l-1 2 -3 -1z"/>
   <path class="fil4" d="M20 28c2,5 6,5 8,0l0 -2c-3,1 -5,1 -8,0l0 2z"/>
   <path class="fil2" d="M5 27c1,-2 0,-4 8,-5 0,1 0,1 1,2l1 2 0 -5c-5,-2 -4,-2 -9,-1 -1,2 -1,3 -1,7z"/>
   <path class="fil2" d="M33 27c2,-3 -1,-2 3,-3 1,-1 3,-2 5,-2l2 4 0 -5c-5,-2 -4,-2 -9,-1 -1,2 -1,3 -1,7z"/>
   <polygon class="fil4" points="36,33 39,34 40,32 40,31 36,31 36,32 "/>
   <polygon class="fil4" points="12,33 12,32 12,31 8,31 8,32 9,34 "/>
  </g>
 </g>
</svg>
