<?xml version="1.0" encoding="UTF-8"?>
<!DOCTYPE svg PUBLIC "-//W3C//DTD SVG 1.1//EN" "http://www.w3.org/Graphics/SVG/1.1/DTD/svg11.dtd">
<!-- Creator: CorelDRAW X8 -->
<svg xmlns="http://www.w3.org/2000/svg" xml:space="preserve" width="30px" height="30px" version="1.1" style="shape-rendering:geometricPrecision; text-rendering:geometricPrecision; image-rendering:optimizeQuality; fill-rule:evenodd; clip-rule:evenodd"
viewBox="0 0 30 30"
 xmlns:xlink="http://www.w3.org/1999/xlink">
 <defs>
  <style type="text/css">
   <![CDATA[
    .fil0 {fill:#8BC34A}
    .fil1 {fill:#CBFE8F}
   ]]>
  </style>
 </defs>
 <g id="Слой_x0020_1">
  <metadata id="CorelCorpID_0Corel-Layer"/>
  <g id="_839113600">
   <path class="fil0" d="M9 4c-2,5 0,2 -4,5 0,4 0,3 -2,6 2,3 2,2 2,7 4,2 2,0 4,4 4,0 4,0 7,2 2,-2 2,-2 6,-2 2,-4 0,-2 5,-4 0,-5 0,-4 2,-7 -2,-3 -2,-2 -2,-6 -5,-3 -3,0 -5,-5 -4,0 -3,0 -6,-2 -3,2 -2,2 -7,2z"/>
   <path class="fil1" d="M14 17c-2,-1 -2,-3 -5,-2 0,3 3,5 5,6l8 -8c3,-2 1,-5 -2,-2l-6 6z"/>
  </g>
 </g>
</svg>
