<?xml version="1.0" encoding="UTF-8"?>
<!DOCTYPE svg PUBLIC "-//W3C//DTD SVG 1.1//EN" "http://www.w3.org/Graphics/SVG/1.1/DTD/svg11.dtd">
<!-- Creator: CorelDRAW X8 -->
<svg xmlns="http://www.w3.org/2000/svg" xml:space="preserve" width="120px" height="100px" version="1.1" style="shape-rendering:geometricPrecision; text-rendering:geometricPrecision; image-rendering:optimizeQuality; fill-rule:evenodd; clip-rule:evenodd"
viewBox="0 0 120 100"
 xmlns:xlink="http://www.w3.org/1999/xlink">
 <defs>
  <style type="text/css">
   <![CDATA[
    .str0 {stroke:#42362B;stroke-width:0.999213}
    .str1 {stroke:#262012;stroke-width:1.99961}
    .str2 {stroke:#E3E0CF;stroke-width:1.99961}
    .fil3 {fill:none;fill-rule:nonzero}
    .fil1 {fill:#262012}
    .fil0 {fill:#E3E0CF}
    .fil2 {fill:#262012;fill-rule:nonzero}
    .fil4 {fill:#E3E0CF;fill-rule:nonzero}
   ]]>
  </style>
 </defs>
 <g id="Слой_x0020_1">
  <metadata id="CorelCorpID_0Corel-Layer"/>
  <g id="_925646848">
   <path class="fil0" d="M3 45l0 47c0,-1 1,-1 2,-2 2,-1 4,-2 6,-3 0,-4 0,-7 0,-10 0,-2 0,-5 0,-8 0,-2 0,-5 0,-8 0,-3 0,-7 0,-11 -2,-1 -4,-3 -6,-4 -1,0 -2,-1 -2,-1zm0 0l0 47 0 -47z"/>
   <polygon class="fil0 str0" points="55,21 63,25 70,30 70,38 70,46 63,50 55,54 48,50 41,46 41,38 41,30 48,25 "/>
   <path class="fil1" d="M6 31l-3 1 0 7 8 5c0,-3 0,-6 0,-10 -2,-1 -3,-2 -5,-3zm-3 1l0 7 0 -7zm0 7l0 -7 0 7zm0 -7l0 7 0 -7z"/>
   <path class="fil2" d="M34 53c3,2 6,4 9,5 3,2 7,4 10,6l0 21 -6 -3 0 -15c0,0 -1,-1 -1,-1 -1,0 -2,-1 -2,-1 -2,-1 -3,-2 -5,-3 -1,-1 -3,-2 -5,-3 -2,2 -4,3 -6,4 -2,1 -4,3 -7,4l0 13c0,0 0,0 0,1 0,0 0,0 0,1 0,0 0,0 0,0 -1,0 -1,0 -1,0 -1,1 -1,1 -2,2 -1,0 -1,0 -2,1l0 -16 0 -16c1,1 2,1 3,2 1,0 1,1 2,1l0 5c3,-2 5,-3 7,-4 2,-1 4,-3 6,-4z"/>
   <path id="1" class="fil3 str1" d="M34 53c3,2 6,4 9,5 3,2 7,4 10,6l0 21 -6 -3 0 -15c0,0 -1,-1 -1,-1 -1,0 -2,-1 -2,-1 -2,-1 -3,-2 -5,-3 -1,-1 -3,-2 -5,-3 -2,2 -4,3 -6,4 -2,1 -4,3 -7,4l0 13c0,0 0,0 0,1 0,0 0,0 0,1 0,0 0,0 0,0 -1,0 -1,0 -1,0 -1,1 -1,1 -2,2 -1,0 -1,0 -2,1l0 -16 0 -16c1,1 2,1 3,2 1,0 1,1 2,1l0 5c3,-2 5,-3 7,-4 2,-1 4,-3 6,-4z"/>
   <path class="fil2" d="M94 64c-3,1 -6,3 -9,5 -3,2 -6,3 -9,5 -1,0 -2,-1 -2,-1 -1,-1 -2,-1 -3,-2 2,-1 4,-2 6,-4 2,-1 5,-2 7,-3 -2,-1 -3,-2 -4,-3 -1,0 -3,-1 -4,-2 -2,2 -4,3 -6,4 -2,1 -5,3 -7,4l0 15c2,1 5,2 7,3 2,2 4,3 6,4 2,-1 4,-2 7,-4 2,-1 4,-2 6,-3l5 3c-3,2 -6,3 -9,5 -3,2 -6,4 -9,5 -3,-1 -6,-3 -9,-5 -3,-2 -6,-3 -9,-5l0 -21c2,-2 5,-3 8,-5 2,-1 5,-3 8,-4 0,-1 0,-1 1,-1 0,0 1,-1 1,-1 0,0 0,0 1,0 0,1 0,1 1,1 2,2 5,3 8,5 3,1 6,3 8,5z"/>
   <path id="1" class="fil3 str1" d="M94 64c-3,1 -6,3 -9,5 -3,2 -6,3 -9,5 -1,0 -2,-1 -2,-1 -1,-1 -2,-1 -3,-2 2,-1 4,-2 6,-4 2,-1 5,-2 7,-3 -2,-1 -3,-2 -4,-3 -1,0 -3,-1 -4,-2 -2,2 -4,3 -6,4 -2,1 -5,3 -7,4l0 15c2,1 5,2 7,3 2,2 4,3 6,4 2,-1 4,-2 7,-4 2,-1 4,-2 6,-3l5 3c-3,2 -6,3 -9,5 -3,2 -6,4 -9,5 -3,-1 -6,-3 -9,-5 -3,-2 -6,-3 -9,-5l0 -21c2,-2 5,-3 8,-5 2,-1 5,-3 8,-4 0,-1 0,-1 1,-1 0,0 1,-1 1,-1 0,0 0,0 1,0 0,1 0,1 1,1 2,2 5,3 8,5 3,1 6,3 8,5z"/>
   <path class="fil2" d="M68 9c2,-1 4,-2 6,-3l0 0c0,3 0,7 0,10 0,4 0,7 0,11l0 21c-3,2 -6,4 -9,6 -3,1 -7,3 -10,5 -2,-1 -4,-3 -6,-4 -3,-1 -5,-3 -7,-4 -1,0 -2,-1 -3,-1 0,-1 -1,-1 -2,-2l0 -21 5 -2c2,-2 4,-3 7,-4 2,-2 4,-3 7,-4 2,1 4,2 6,3 2,2 4,3 6,4l0 -15zm-13 14c-2,1 -4,2 -6,4 -2,1 -4,2 -6,3l0 15c2,1 4,3 6,4 2,1 4,3 7,4 2,-2 4,-3 6,-4 2,-1 4,-3 6,-4l0 -15c-2,-1 -4,-2 -6,-3 -2,-2 -4,-3 -7,-4z"/>
   <path id="1" class="fil3 str1" d="M68 9c2,-1 4,-2 6,-3l0 0c0,3 0,7 0,10 0,4 0,7 0,11l0 21c-3,2 -6,4 -9,6 -3,1 -7,3 -10,5 -2,-1 -4,-3 -6,-4 -3,-1 -5,-3 -7,-4 -1,0 -2,-1 -3,-1 0,-1 -1,-1 -2,-2l0 -21 5 -2c2,-2 4,-3 7,-4 2,-2 4,-3 7,-4 2,1 4,2 6,3 2,2 4,3 6,4l0 -15zm-13 14c-2,1 -4,2 -6,4 -2,1 -4,2 -6,3l0 15c2,1 4,3 6,4 2,1 4,3 7,4 2,-2 4,-3 6,-4 2,-1 4,-3 6,-4l0 -15c-2,-1 -4,-2 -6,-3 -2,-2 -4,-3 -7,-4z"/>
   <path class="fil4" d="M116 27l0 21c0,1 -1,1 -2,2 -1,0 -1,1 -2,1 -2,1 -5,3 -7,4 -2,1 -5,3 -7,4 -3,-2 -6,-3 -9,-5 -3,-2 -6,-4 -9,-5 0,-4 0,-7 0,-10 0,-3 0,-6 0,-9 0,0 0,0 0,0 0,0 0,-1 0,-1l0 -2c0,0 0,0 0,0 1,0 1,0 1,0 1,-1 1,-1 2,-2 1,0 2,0 2,-1 1,1 2,1 3,2 1,0 2,1 3,1 -1,1 -2,1 -3,2 -1,1 -2,1 -3,2l0 12c0,1 0,1 0,1 0,1 0,1 0,1 0,0 0,0 0,1 1,0 1,0 1,0 0,0 0,0 0,0 1,0 1,0 1,0 2,1 4,3 5,4 2,1 4,2 6,3 2,-1 4,-3 7,-4 2,-1 4,-2 6,-4l0 -14c-1,-1 -2,-2 -3,-2 -1,-1 -1,-1 -2,-2 0,0 1,-1 2,-1 1,-1 2,-1 3,-2l5 3z"/>
   <path id="1" class="fil3 str2" d="M116 27l0 21c0,1 -1,1 -2,2 -1,0 -1,1 -2,1 -2,1 -5,3 -7,4 -2,1 -5,3 -7,4 -3,-2 -6,-3 -9,-5 -3,-2 -6,-4 -9,-5 0,-4 0,-7 0,-10 0,-3 0,-6 0,-9 0,0 0,0 0,0 0,0 0,-1 0,-1l0 -2c0,0 0,0 0,0 1,0 1,0 1,0 1,-1 1,-1 2,-2 1,0 2,0 2,-1 1,1 2,1 3,2 1,0 2,1 3,1 -1,1 -2,1 -3,2 -1,1 -2,1 -3,2l0 12c0,1 0,1 0,1 0,1 0,1 0,1 0,0 0,0 0,1 1,0 1,0 1,0 0,0 0,0 0,0 1,0 1,0 1,0 2,1 4,3 5,4 2,1 4,2 6,3 2,-1 4,-3 7,-4 2,-1 4,-2 6,-4l0 -14c-1,-1 -2,-2 -3,-2 -1,-1 -1,-1 -2,-2 0,0 1,-1 2,-1 1,-1 2,-1 3,-2l5 3z"/>
  </g>
 </g>
</svg>
