<?xml version="1.0" encoding="UTF-8"?>
<!DOCTYPE svg PUBLIC "-//W3C//DTD SVG 1.1//EN" "http://www.w3.org/Graphics/SVG/1.1/DTD/svg11.dtd">
<!-- Creator: CorelDRAW X8 -->
<svg xmlns="http://www.w3.org/2000/svg" xml:space="preserve" width="48px" height="48px" version="1.1" style="shape-rendering:geometricPrecision; text-rendering:geometricPrecision; image-rendering:optimizeQuality; fill-rule:evenodd; clip-rule:evenodd"
viewBox="0 0 48 48"
 xmlns:xlink="http://www.w3.org/1999/xlink">
 <defs>
  <style type="text/css">
   <![CDATA[
    .fil1 {fill:#3F37F7}
    .fil4 {fill:#8A29A9}
    .fil2 {fill:#DC165D}
    .fil8 {fill:#FE1446}
    .fil6 {fill:#FE6B0E}
    .fil5 {fill:#FF8401}
    .fil3 {fill:#FFDB6C}
    .fil7 {fill:#FFEBB1}
    .fil0 {fill:#FFFCFA}
   ]]>
  </style>
 </defs>
 <g id="Слой_x0020_1">
  <metadata id="CorelCorpID_0Corel-Layer"/>
  <g id="_848929088">
   <path class="fil0" d="M10 17l0 10c0,4 0,6 2,8 3,3 1,1 4,3l10 0 4 0c4,0 6,-1 8,-6l0 -11c0,-9 -3,-11 -12,-11 -8,0 -14,0 -16,7z"/>
   <path class="fil1" d="M6 19c2,-2 1,-1 4,-2 2,-7 8,-7 16,-7 9,0 12,2 12,11l2 2c1,1 1,1 2,2 0,-6 1,-12 -2,-15 -3,-4 -6,-4 -13,-4 -14,0 -21,-2 -21,13z"/>
   <path class="fil2" d="M13 16l-1 9 5 -2c1,-3 3,-6 8,-6 5,1 6,4 6,9 3,2 2,2 5,5l0 -12c-9,-4 -10,-6 -23,-3z"/>
   <path class="fil0" d="M17 23l2 6 7 2c4,-2 3,-1 5,-5 0,-5 -1,-8 -6,-9 -5,0 -7,3 -8,6z"/>
   <path class="fil3" d="M13 33c1,3 2,3 6,3 3,0 7,0 10,0l-3 -5 -7 -2c-2,2 -3,3 -6,4z"/>
   <path class="fil2" d="M38 32l0 8c2,-1 1,0 2,-1 1,-1 2,-2 2,-3l0 -11c-1,-1 -1,-1 -2,-2l-2 -2 0 11z"/>
   <path class="fil4" d="M13 16c13,-3 14,-1 23,3 -1,-5 -3,-7 -9,-7 -7,0 -10,-1 -14,4z"/>
   <path class="fil5" d="M26 31l3 5c5,-1 6,-1 7,-5 -3,-3 -2,-3 -5,-5 -2,4 -1,3 -5,5z"/>
   <path class="fil5" d="M6 31c0,6 1,9 6,10l0 -6c-2,-2 -2,-4 -2,-8 -1,1 -1,1 -2,2 -2,2 0,0 -2,2z"/>
   <path class="fil6" d="M28 22l-8 0c-3,9 10,10 8,0z"/>
   <path class="fil2" d="M6 19l0 12c2,-2 0,0 2,-2 1,-1 1,-1 2,-2l0 -10c-3,1 -2,0 -4,2z"/>
   <path class="fil5" d="M12 25l1 8c3,-1 4,-2 6,-4l-2 -6 -5 2z"/>
   <polygon class="fil7" points="16,42 26,42 26,38 16,38 "/>
   <path class="fil6" d="M30 38l0 4 8 -2 0 -8c-2,5 -4,6 -8,6z"/>
   <path class="fil8" d="M20 22l8 0c-1,-2 -1,-3 -4,-3 -4,0 -3,2 -4,3z"/>
   <path class="fil3" d="M12 41c1,1 0,1 2,1 1,0 2,0 2,0l0 -4c-3,-2 -1,0 -4,-3l0 6z"/>
   <polygon class="fil3" points="26,42 30,42 30,38 26,38 "/>
  </g>
 </g>
</svg>
