<?xml version="1.0" encoding="UTF-8"?>
<!DOCTYPE svg PUBLIC "-//W3C//DTD SVG 1.1//EN" "http://www.w3.org/Graphics/SVG/1.1/DTD/svg11.dtd">
<!-- Creator: CorelDRAW X8 -->
<svg xmlns="http://www.w3.org/2000/svg" xml:space="preserve" width="48px" height="48px" version="1.1" style="shape-rendering:geometricPrecision; text-rendering:geometricPrecision; image-rendering:optimizeQuality; fill-rule:evenodd; clip-rule:evenodd"
viewBox="0 0 48 48"
 xmlns:xlink="http://www.w3.org/1999/xlink">
 <defs>
  <style type="text/css">
   <![CDATA[
    .fil1 {fill:#546E79}
    .fil0 {fill:#FFE47D}
   ]]>
  </style>
 </defs>
 <g id="Слой_x0020_1">
  <metadata id="CorelCorpID_0Corel-Layer"/>
  <g id="_850244128">
   <path class="fil0" d="M6 35c11,-10 5,-2 7,-16 1,-6 8,-9 16,-8 -2,3 -5,5 -8,8 1,5 3,6 7,8 5,-2 6,-5 10,-8 1,23 -14,13 -19,17 -3,2 -3,3 -6,6 2,1 0,0 3,2 3,1 9,2 13,1 24,-5 20,-40 -3,-42 -6,0 -12,2 -15,4 -3,3 -6,7 -8,12 -1,6 0,10 3,16 0,0 0,0 0,0z"/>
   <path class="fil1" d="M6 35c1,2 1,3 3,5 0,0 1,0 1,1 2,1 2,0 3,1 3,-3 3,-4 6,-6 5,-4 20,6 19,-17 -4,3 -5,6 -10,8 -4,-2 -6,-3 -7,-8 3,-3 6,-5 8,-8 -8,-1 -15,2 -16,8 -2,14 4,6 -7,16z"/>
  </g>
 </g>
</svg>
